STARTFONT 2.1
FONT big5.5000.16
SIZE 16 72 72
FONTBOUNDINGBOX 16 16 0 -2
STARTPROPERTIES 4
FONT_DESCENT 2
FONT_ASCENT 14
DEFAULT_CHAR 0
COPYRIGHT "Copyright (c) 1992 AT&T - All rights reserved."
ENDPROPERTIES
CHARS 318
STARTCHAR ch-0
ENCODING 0
SWIDTH 1000 0
DWIDTH 16 0
BBX 16 16 0 -2
BITMAP
09fc
0900
11fc
3100
51fc
1100
17ff
1140
1120
1111
110a
1124
1142
1381
0000
0000
ENDCHAR
STARTCHAR ch-5
ENCODING 5
SWIDTH 1000 0
DWIDTH 16 0
BBX 16 16 0 -2
BITMAP
0820
17ff
2000
6104
2104
228a
2471
2020
27ff
2020
2020
2020
2020
2020
0000
0000
ENDCHAR
STARTCHAR ch-6
ENCODING 6
SWIDTH 1000 0
DWIDTH 16 0
BBX 16 16 0 -2
BITMAP
1002
17ff
1020
2020
6421
27ff
2421
2529
24a5
256b
2631
2421
2425
2422
0000
0000
ENDCHAR
STARTCHAR ch-7
ENCODING 7
SWIDTH 1000 0
DWIDTH 16 0
BBX 16 16 0 -2
BITMAP
0820
0820
17ff
2401
6100
23df
2451
2c51
2251
219e
2110
2211
2411
281f
0000
0000
ENDCHAR
STARTCHAR ch-9
ENCODING 9
SWIDTH 1000 0
DWIDTH 16 0
BBX 16 16 0 -2
BITMAP
01c0
0220
05d0
0808
17f4
2412
47f1
0410
07f0
0800
17f8
2408
0408
07f8
0000
0000
ENDCHAR
STARTCHAR ch-11
ENCODING 11
SWIDTH 1000 0
DWIDTH 16 0
BBX 16 16 0 -2
BITMAP
1000
17ff
2421
4429
25fd
2421
2421
25fd
2505
2505
25fd
2401
27ff
2401
0000
0000
ENDCHAR
STARTCHAR ch-12
ENCODING 12
SWIDTH 1000 0
DWIDTH 16 0
BBX 16 16 0 -2
BITMAP
0840
0bff
0a02
1404
31f8
5108
1108
11f8
1100
11fc
1104
1104
11fc
1100
0000
0000
ENDCHAR
STARTCHAR ch-13
ENCODING 13
SWIDTH 1000 0
DWIDTH 16 0
BBX 16 16 0 -2
BITMAP
0840
0820
0bfe
0800
110c
3088
5090
17ff
1004
11fe
1104
1104
11fc
1104
0000
0000
ENDCHAR
STARTCHAR ch-14
ENCODING 14
SWIDTH 1000 0
DWIDTH 16 0
BBX 16 16 0 -2
BITMAP
0850
1050
23fe
6252
2252
23fe
2252
2252
2252
27ff
2000
2088
2104
2202
0000
0000
ENDCHAR
STARTCHAR ch-15
ENCODING 15
SWIDTH 1000 0
DWIDTH 16 0
BBX 16 16 0 -2
BITMAP
0880
08fc
1488
1550
3620
5458
14a7
1728
1424
17fe
1420
104c
1082
1302
0000
0000
ENDCHAR
STARTCHAR ch-17
ENCODING 17
SWIDTH 1000 0
DWIDTH 16 0
BBX 16 16 0 -2
BITMAP
1000
17df
2451
47df
2451
27df
2451
2401
2401
2401
2401
2401
2405
2402
0000
0000
ENDCHAR
STARTCHAR ch-18
ENCODING 18
SWIDTH 1000 0
DWIDTH 16 0
BBX 16 16 0 -2
BITMAP
1021
17f1
1101
2145
6225
27e5
20a5
2085
27e5
2085
20f1
2f81
2205
2002
0000
0000
ENDCHAR
STARTCHAR ch-19
ENCODING 19
SWIDTH 1000 0
DWIDTH 16 0
BBX 16 16 0 -2
BITMAP
0820
1222
2124
4020
2050
2088
2707
2020
2222
2124
2050
2050
2088
2707
0000
0000
ENDCHAR
STARTCHAR ch-20
ENCODING 20
SWIDTH 1000 0
DWIDTH 16 0
BBX 16 16 0 -2
BITMAP
0802
0bff
1202
13fe
3210
5292
1292
12fe
1210
1292
1292
1492
18fe
1082
0000
0000
ENDCHAR
STARTCHAR ch-21
ENCODING 21
SWIDTH 1000 0
DWIDTH 16 0
BBX 16 16 0 -2
BITMAP
0802
13fc
2020
4020
27ff
2124
2124
27ff
2124
2124
27ff
2020
2020
27ff
0000
0000
ENDCHAR
STARTCHAR ch-22
ENCODING 22
SWIDTH 1000 0
DWIDTH 16 0
BBX 16 16 0 -2
BITMAP
0820
0bfe
1020
3020
57ff
1104
1088
17ff
1020
1024
13fe
1020
1020
1020
0000
0000
ENDCHAR
STARTCHAR ch-23
ENCODING 23
SWIDTH 1000 0
DWIDTH 16 0
BBX 16 16 0 -2
BITMAP
17df
1451
2451
4451
27df
2451
2451
27df
2451
2451
2451
2451
2451
28a2
0000
0000
ENDCHAR
STARTCHAR ch-24
ENCODING 24
SWIDTH 1000 0
DWIDTH 16 0
BBX 16 16 0 -2
BITMAP
0820
0924
0924
10aa
33ff
5202
1202
12fa
128a
128a
12fa
1282
120a
1204
0000
0000
ENDCHAR
STARTCHAR ch-25
ENCODING 25
SWIDTH 1000 0
DWIDTH 16 0
BBX 16 16 0 -2
BITMAP
09fc
1008
1408
37ff
5480
1480
15fe
1620
1422
17ff
1450
1088
1107
1202
0000
0000
ENDCHAR
STARTCHAR ch-26
ENCODING 26
SWIDTH 1000 0
DWIDTH 16 0
BBX 16 16 0 -2
BITMAP
0420
0424
09fe
1850
1888
2bff
4804
09f4
0914
0914
09f4
0904
0814
0808
0000
0000
ENDCHAR
STARTCHAR ch-27
ENCODING 27
SWIDTH 1000 0
DWIDTH 16 0
BBX 16 16 0 -2
BITMAP
0800
1104
2104
47ff
2104
21fc
2104
21fc
2104
2104
27ff
2088
2104
2603
0000
0000
ENDCHAR
STARTCHAR ch-28
ENCODING 28
SWIDTH 1000 0
DWIDTH 16 0
BBX 16 16 0 -2
BITMAP
0802
0bff
1222
12fa
3222
5222
12fa
1202
12fa
128a
12fa
1402
140a
1804
0000
0000
ENDCHAR
STARTCHAR ch-30
ENCODING 30
SWIDTH 1000 0
DWIDTH 16 0
BBX 16 16 0 -2
BITMAP
0410
05ff
0800
18fe
2882
4882
08fe
0810
0854
0892
0911
0810
0850
0820
0000
0000
ENDCHAR
STARTCHAR ch-31
ENCODING 31
SWIDTH 1000 0
DWIDTH 16 0
BBX 16 16 0 -2
BITMAP
0888
0bfe
0888
1088
37ff
5000
11fc
1104
1104
11fc
1104
1104
11fc
1104
0000
0000
ENDCHAR
STARTCHAR ch-32
ENCODING 32
SWIDTH 1000 0
DWIDTH 16 0
BBX 16 16 0 -2
BITMAP
0880
0890
1108
33ff
5508
1108
11ff
1108
1108
11ff
1108
1108
11ff
1100
0000
0000
ENDCHAR
STARTCHAR ch-33
ENCODING 33
SWIDTH 1000 0
DWIDTH 16 0
BBX 16 16 0 -2
BITMAP
09fc
0904
11fc
1104
3104
51fc
1000
13fe
1202
13fe
1202
1202
13fe
1202
0000
0000
ENDCHAR
STARTCHAR ch-34
ENCODING 34
SWIDTH 1000 0
DWIDTH 16 0
BBX 16 16 0 -2
BITMAP
1020
17ff
2020
43fe
2022
27ff
2022
23fe
2020
2120
213e
22a0
2460
283f
0000
0000
ENDCHAR
STARTCHAR ch-35
ENCODING 35
SWIDTH 1000 0
DWIDTH 16 0
BBX 16 16 0 -2
BITMAP
1408
1210
213f
4fc2
2402
2792
2492
2492
2492
2492
248c
288c
2292
2121
0000
0000
ENDCHAR
STARTCHAR ch-37
ENCODING 37
SWIDTH 1000 0
DWIDTH 16 0
BBX 16 16 0 -2
BITMAP
0840
0820
0bff
1201
348a
5104
1202
1000
11fc
1020
1020
1022
17ff
1000
0000
0000
ENDCHAR
STARTCHAR ch-38
ENCODING 38
SWIDTH 1000 0
DWIDTH 16 0
BBX 16 16 0 -2
BITMAP
0924
08a8
0bfe
1040
37ff
5088
1104
12fb
148a
1088
10a8
1092
1082
107e
0000
0000
ENDCHAR
STARTCHAR ch-39
ENCODING 39
SWIDTH 1000 0
DWIDTH 16 0
BBX 16 16 0 -2
BITMAP
0820
0810
11ff
3101
5101
107c
1000
11ff
1010
1054
1092
1111
1010
1010
0000
0000
ENDCHAR
STARTCHAR ch-40
ENCODING 40
SWIDTH 1000 0
DWIDTH 16 0
BBX 16 16 0 -2
BITMAP
0402
05ff
0902
09fe
1912
2910
49ff
0910
0912
09ff
0982
0a82
0cfe
0882
0000
0000
ENDCHAR
STARTCHAR ch-41
ENCODING 41
SWIDTH 1000 0
DWIDTH 16 0
BBX 16 16 0 -2
BITMAP
0420
07fe
0820
09fc
1820
2fff
4800
09fc
0904
09fc
0904
09fc
0904
0908
0000
0000
ENDCHAR
STARTCHAR ch-42
ENCODING 42
SWIDTH 1000 0
DWIDTH 16 0
BBX 16 16 0 -2
BITMAP
0420
0442
059f
0902
19de
2902
4902
09fe
094a
0848
0848
0889
0909
0a07
0000
0000
ENDCHAR
STARTCHAR ch-43
ENCODING 43
SWIDTH 1000 0
DWIDTH 16 0
BBX 16 16 0 -2
BITMAP
0870
0888
1104
2202
55fd
1000
1000
13fe
1252
1252
13fe
1252
1252
1206
0000
0000
ENDCHAR
STARTCHAR ch-44
ENCODING 44
SWIDTH 1000 0
DWIDTH 16 0
BBX 16 16 0 -2
BITMAP
0420
043e
0820
09fc
1904
29fc
4904
09fc
0920
0822
0fff
0820
0820
0820
0000
0000
ENDCHAR
STARTCHAR ch-45
ENCODING 45
SWIDTH 1000 0
DWIDTH 16 0
BBX 16 16 0 -2
BITMAP
040c
05f0
0820
0bfe
18a8
2924
4a23
0840
0fff
0908
08d0
0820
08d8
0b04
0000
0000
ENDCHAR
STARTCHAR ch-47
ENCODING 47
SWIDTH 1000 0
DWIDTH 16 0
BBX 16 16 0 -2
BITMAP
0a00
1208
2214
4222
2fc1
2200
2208
2708
2a88
2208
2210
2222
227f
2201
0000
0000
ENDCHAR
STARTCHAR ch-48
ENCODING 48
SWIDTH 1000 0
DWIDTH 16 0
BBX 16 16 0 -2
BITMAP
1020
1020
23fe
4020
27ff
2104
2247
24fc
2188
2250
2420
2050
2088
2707
0000
0000
ENDCHAR
STARTCHAR ch-49
ENCODING 49
SWIDTH 1000 0
DWIDTH 16 0
BBX 16 16 0 -2
BITMAP
0bfe
1202
23fe
6202
23fe
2202
2000
2410
2410
27df
2410
2410
2451
27df
0000
0000
ENDCHAR
STARTCHAR ch-51
ENCODING 51
SWIDTH 1000 0
DWIDTH 16 0
BBX 16 16 0 -2
BITMAP
0820
0bfe
1020
33fe
5222
13fe
1020
13fe
1022
17ff
1022
13fe
1020
1060
0000
0000
ENDCHAR
STARTCHAR ch-53
ENCODING 53
SWIDTH 1000 0
DWIDTH 16 0
BBX 16 16 0 -2
BITMAP
1012
17d1
2010
67ff
2010
2110
2110
25d0
2510
2548
2589
2f05
2003
2001
0000
0000
ENDCHAR
STARTCHAR ch-55
ENCODING 55
SWIDTH 1000 0
DWIDTH 16 0
BBX 16 16 0 -2
BITMAP
1020
17ff
2050
4088
2104
26fb
2000
23fe
2020
20a8
2124
2623
2020
2040
0000
0000
ENDCHAR
STARTCHAR ch-60
ENCODING 60
SWIDTH 1000 0
DWIDTH 16 0
BBX 16 16 0 -2
BITMAP
0820
0822
0bff
1020
31fc
5104
11fc
1104
11fc
1104
11fc
1104
17ff
1000
0000
0000
ENDCHAR
STARTCHAR ch-64
ENCODING 64
SWIDTH 1000 0
DWIDTH 16 0
BBX 16 16 0 -2
BITMAP
0888
17ff
2088
6020
23fe
2222
2222
2222
2fff
2050
2088
2104
2202
2401
0000
0000
ENDCHAR
STARTCHAR ch-65
ENCODING 65
SWIDTH 1000 0
DWIDTH 16 0
BBX 16 16 0 -2
BITMAP
1001
17fe
2221
4112
2020
23fe
2222
23fe
2222
2fff
2202
2202
220a
2204
0000
0000
ENDCHAR
STARTCHAR ch-67
ENCODING 67
SWIDTH 1000 0
DWIDTH 16 0
BBX 16 16 0 -2
BITMAP
0bff
0a00
12fe
3282
52fe
1282
12fe
1220
13ff
1244
12c8
1230
12cc
13ff
0000
0000
ENDCHAR
STARTCHAR ch-69
ENCODING 69
SWIDTH 1000 0
DWIDTH 16 0
BBX 16 16 0 -2
BITMAP
0404
04f8
0410
09ff
1810
28fe
4892
08fe
0892
08fe
0810
08fe
0810
09ff
0000
0000
ENDCHAR
STARTCHAR ch-70
ENCODING 70
SWIDTH 1000 0
DWIDTH 16 0
BBX 16 16 0 -2
BITMAP
0840
13fc
2040
47fe
2040
2fff
2108
2204
25fa
2909
21f8
2108
21f8
2108
0000
0000
ENDCHAR
STARTCHAR ch-71
ENCODING 71
SWIDTH 1000 0
DWIDTH 16 0
BBX 16 16 0 -2
BITMAP
0802
0bdf
0a42
1242
33de
5200
123e
13c2
1214
13d4
1208
1214
1263
1202
0000
0000
ENDCHAR
STARTCHAR ch-72
ENCODING 72
SWIDTH 1000 0
DWIDTH 16 0
BBX 16 16 0 -2
BITMAP
05fe
0504
09fc
0904
19fc
2880
4882
09ff
0a22
0d22
0952
09f2
080a
0804
0000
0000
ENDCHAR
STARTCHAR ch-73
ENCODING 73
SWIDTH 1000 0
DWIDTH 16 0
BBX 16 16 0 -2
BITMAP
1020
13fe
2022
67ff
2000
23fe
2202
23fe
2020
27fe
2220
2220
2fff
2020
0000
0000
ENDCHAR
STARTCHAR ch-74
ENCODING 74
SWIDTH 1000 0
DWIDTH 16 0
BBX 16 16 0 -2
BITMAP
0802
13fc
2020
43fe
2222
2222
23fe
2020
27ff
2425
25fd
2405
2401
2402
0000
0000
ENDCHAR
STARTCHAR ch-75
ENCODING 75
SWIDTH 1000 0
DWIDTH 16 0
BBX 16 16 0 -2
BITMAP
0bff
0a01
13ff
3242
5224
12ff
1224
1224
13ff
1224
1224
1244
1484
1004
0000
0000
ENDCHAR
STARTCHAR ch-76
ENCODING 76
SWIDTH 1000 0
DWIDTH 16 0
BBX 16 16 0 -2
BITMAP
0888
0888
13fe
3088
50a8
1040
17ff
1080
1104
11fe
1304
1504
11fc
1104
0000
0000
ENDCHAR
STARTCHAR ch-77
ENCODING 77
SWIDTH 1000 0
DWIDTH 16 0
BBX 16 16 0 -2
BITMAP
09fc
1104
21fc
4104
21fc
2000
27ff
2020
2120
213e
2120
22a0
2460
283f
0000
0000
ENDCHAR
STARTCHAR ch-78
ENCODING 78
SWIDTH 1000 0
DWIDTH 16 0
BBX 16 16 0 -2
BITMAP
09fe
0924
1124
31fc
5124
1124
11fc
17ff
1144
1128
1110
1148
1187
1102
0000
0000
ENDCHAR
STARTCHAR ch-79
ENCODING 79
SWIDTH 1000 0
DWIDTH 16 0
BBX 16 16 0 -2
BITMAP
081c
0be2
0bff
1202
33fe
5200
1202
13ff
134a
154a
15fe
154a
194a
1106
0000
0000
ENDCHAR
STARTCHAR ch-81
ENCODING 81
SWIDTH 1000 0
DWIDTH 16 0
BBX 16 16 0 -2
BITMAP
0bfe
0a06
12fa
3222
5222
12fa
12aa
12aa
12fa
1222
1225
12fd
1205
1401
0000
0000
ENDCHAR
STARTCHAR ch-83
ENCODING 83
SWIDTH 1000 0
DWIDTH 16 0
BBX 16 16 0 -2
BITMAP
0bff
1201
23ff
4200
22fe
2220
2242
22fe
2211
2210
24fe
2810
2010
21ff
0000
0000
ENDCHAR
STARTCHAR ch-85
ENCODING 85
SWIDTH 1000 0
DWIDTH 16 0
BBX 16 16 0 -2
BITMAP
0910
0912
11d6
3118
5151
1191
112f
1040
11fc
1104
11fc
1104
11fc
1104
0000
0000
ENDCHAR
STARTCHAR ch-87
ENCODING 87
SWIDTH 1000 0
DWIDTH 16 0
BBX 16 16 0 -2
BITMAP
0820
08a4
112a
3231
5020
1040
10fe
1182
12fe
1482
10fe
1082
10fe
1082
0000
0000
ENDCHAR
STARTCHAR ch-90
ENCODING 90
SWIDTH 1000 0
DWIDTH 16 0
BBX 16 16 0 -2
BITMAP
1208
1210
2222
6fbf
2202
2202
2212
2f92
2892
2894
2888
2f94
28a2
2041
0000
0000
ENDCHAR
STARTCHAR ch-91
ENCODING 91
SWIDTH 1000 0
DWIDTH 16 0
BBX 16 16 0 -2
BITMAP
0802
13fc
2020
4020
27ff
2020
2227
2421
2421
27af
2421
2421
27ff
2401
0000
0000
ENDCHAR
STARTCHAR ch-92
ENCODING 92
SWIDTH 1000 0
DWIDTH 16 0
BBX 16 16 0 -2
BITMAP
0840
0824
0bfe
1000
31fc
5104
11fc
1000
17ff
1401
19fa
1020
1020
10e0
0000
0000
ENDCHAR
STARTCHAR ch-93
ENCODING 93
SWIDTH 1000 0
DWIDTH 16 0
BBX 16 16 0 -2
BITMAP
0848
0848
13cf
3048
53cf
1000
11fe
1102
11fe
1102
11fe
1102
110a
1204
0000
0000
ENDCHAR
STARTCHAR ch-94
ENCODING 94
SWIDTH 1000 0
DWIDTH 16 0
BBX 16 16 0 -2
BITMAP
0a48
1248
27ff
4248
2278
2200
23fe
2020
27ff
20a8
2124
2222
2421
2020
0000
0000
ENDCHAR
STARTCHAR ch-95
ENCODING 95
SWIDTH 1000 0
DWIDTH 16 0
BBX 16 16 0 -2
BITMAP
0880
0900
13fe
2602
63fe
2202
23fe
2000
23fe
2020
23fe
2020
2020
27ff
0000
0000
ENDCHAR
STARTCHAR ch-96
ENCODING 96
SWIDTH 1000 0
DWIDTH 16 0
BBX 16 16 0 -2
BITMAP
17ff
1050
27ff
6451
2451
27ff
2080
2088
27ff
2088
2050
2020
2050
278e
0000
0000
ENDCHAR
STARTCHAR ch-97
ENCODING 97
SWIDTH 1000 0
DWIDTH 16 0
BBX 16 16 0 -2
BITMAP
0888
0888
17ff
2088
40f8
2088
20f8
2088
27ff
2250
2250
229e
2200
23ff
0000
0000
ENDCHAR
STARTCHAR ch-98
ENCODING 98
SWIDTH 1000 0
DWIDTH 16 0
BBX 16 16 0 -2
BITMAP
0840
1788
2108
412a
212a
2fea
211c
2388
2548
2908
2114
2122
2141
2141
0000
0000
ENDCHAR
STARTCHAR ch-99
ENCODING 99
SWIDTH 1000 0
DWIDTH 16 0
BBX 16 16 0 -2
BITMAP
1020
1020
27ff
4104
2104
2088
27ff
2000
23fe
2202
23fe
2202
23fe
2202
0000
0000
ENDCHAR
STARTCHAR ch-100
ENCODING 100
SWIDTH 1000 0
DWIDTH 16 0
BBX 16 16 0 -2
BITMAP
0904
1088
27ff
4050
23fe
2252
2252
2292
231e
2202
2272
2202
23fe
2202
0000
0000
ENDCHAR
STARTCHAR ch-101
ENCODING 101
SWIDTH 1000 0
DWIDTH 16 0
BBX 16 16 0 -2
BITMAP
0810
087e
1712
11ff
3112
527e
1410
177e
1110
1910
16ff
1510
1890
107f
0000
0000
ENDCHAR
STARTCHAR ch-104
ENCODING 104
SWIDTH 1000 0
DWIDTH 16 0
BBX 16 16 0 -2
BITMAP
0910
1110
2110
45df
2510
2511
2fdf
2020
2020
27ff
2124
2222
2421
2020
0000
0000
ENDCHAR
STARTCHAR ch-105
ENCODING 105
SWIDTH 1000 0
DWIDTH 16 0
BBX 16 16 0 -2
BITMAP
0900
13fc
2408
4010
23fe
2202
23fe
2202
23fe
2202
23fe
2104
2202
2401
0000
0000
ENDCHAR
STARTCHAR ch-106
ENCODING 106
SWIDTH 1000 0
DWIDTH 16 0
BBX 16 16 0 -2
BITMAP
05ff
0800
10fe
6082
10fe
1000
11ff
1111
1111
11ff
1111
1111
11ff
1101
0000
0000
ENDCHAR
STARTCHAR ch-107
ENCODING 107
SWIDTH 1000 0
DWIDTH 16 0
BBX 16 16 0 -2
BITMAP
1108
1208
243e
6908
217f
2200
2604
2a7f
2224
2214
2204
2204
2214
2208
0000
0000
ENDCHAR
STARTCHAR ch-109
ENCODING 109
SWIDTH 1000 0
DWIDTH 16 0
BBX 16 16 0 -2
BITMAP
1002
17ff
2040
6080
2100
27ff
2451
2471
2451
2451
2471
2451
27ff
2401
0000
0000
ENDCHAR
STARTCHAR ch-110
ENCODING 110
SWIDTH 1000 0
DWIDTH 16 0
BBX 16 16 0 -2
BITMAP
0404
09fc
1104
31fe
5000
13ff
1104
11fc
1104
11fc
1104
13fe
1004
1004
0000
0000
ENDCHAR
STARTCHAR ch-111
ENCODING 111
SWIDTH 1000 0
DWIDTH 16 0
BBX 16 16 0 -2
BITMAP
0840
0820
13fe
3000
51fc
1104
1104
11fc
1040
1082
1194
1688
10a4
11c3
0000
0000
ENDCHAR
STARTCHAR ch-112
ENCODING 112
SWIDTH 1000 0
DWIDTH 16 0
BBX 16 16 0 -2
BITMAP
0900
17df
2109
47c9
2109
27d1
2106
2020
27ff
2020
2050
2088
2104
2603
0000
0000
ENDCHAR
STARTCHAR ch-114
ENCODING 114
SWIDTH 1000 0
DWIDTH 16 0
BBX 16 16 0 -2
BITMAP
0bfe
1222
2222
43fe
2222
2222
23fe
2000
2000
24a2
2492
2481
2484
20fc
0000
0000
ENDCHAR
STARTCHAR ch-115
ENCODING 115
SWIDTH 1000 0
DWIDTH 16 0
BBX 16 16 0 -2
BITMAP
0820
0a21
1221
33ff
5000
13ff
1020
1040
13ff
1249
1249
1249
1249
1202
0000
0000
ENDCHAR
STARTCHAR ch-116
ENCODING 116
SWIDTH 1000 0
DWIDTH 16 0
BBX 16 16 0 -2
BITMAP
0800
0801
0be1
1225
1225
33e5
5225
13e5
1221
1221
13e1
1141
1225
1412
0000
0000
ENDCHAR
STARTCHAR ch-117
ENCODING 117
SWIDTH 1000 0
DWIDTH 16 0
BBX 16 16 0 -2
BITMAP
0420
0820
103e
3020
53fe
1202
13fe
1202
13fe
1202
13fe
1104
1202
1401
0000
0000
ENDCHAR
STARTCHAR ch-118
ENCODING 118
SWIDTH 1000 0
DWIDTH 16 0
BBX 16 16 0 -2
BITMAP
0bfe
1222
13fe
3222
5222
13fe
1020
17ff
1421
1425
15fd
1401
1405
1402
0000
0000
ENDCHAR
STARTCHAR ch-119
ENCODING 119
SWIDTH 1000 0
DWIDTH 16 0
BBX 16 16 0 -2
BITMAP
0840
08a0
1110
1208
35f7
5802
13c4
1254
13d4
1254
13d4
1244
1254
12c8
0000
0000
ENDCHAR
STARTCHAR ch-122
ENCODING 122
SWIDTH 1000 0
DWIDTH 16 0
BBX 16 16 0 -2
BITMAP
0900
09e4
0924
1344
348a
5151
9220
141f
1000
13fe
1202
13fe
1202
13fe
0000
0000
ENDCHAR
STARTCHAR ch-125
ENCODING 125
SWIDTH 1000 0
DWIDTH 16 0
BBX 16 16 0 -2
BITMAP
0910
0890
1010
23fe
2044
6044
20fe
2102
22ff
2401
2aa9
2255
2002
201c
0000
0000
ENDCHAR
STARTCHAR ch-128
ENCODING 128
SWIDTH 1000 0
DWIDTH 16 0
BBX 16 16 0 -2
BITMAP
0840
0884
0bfe
1224
33fc
5224
13fc
1244
1040
10a8
10b4
113d
1221
141f
0000
0000
ENDCHAR
STARTCHAR ch-130
ENCODING 130
SWIDTH 1000 0
DWIDTH 16 0
BBX 16 16 0 -2
BITMAP
0801
17fe
2210
421e
2210
22ff
2291
22bc
2290
229e
2280
2294
2495
2927
0000
0000
ENDCHAR
STARTCHAR ch-131
ENCODING 131
SWIDTH 1000 0
DWIDTH 16 0
BBX 16 16 0 -2
BITMAP
0820
0bfe
1020
33fe
5020
17ff
1082
13fc
1011
13ff
1020
1124
1623
1020
0000
0000
ENDCHAR
STARTCHAR ch-133
ENCODING 133
SWIDTH 1000 0
DWIDTH 16 0
BBX 16 16 0 -2
BITMAP
0428
07ff
0820
0bfe
1a22
2bfe
4a22
0bfe
0a22
0808
0fff
0888
0828
0810
0000
0000
ENDCHAR
STARTCHAR ch-135
ENCODING 135
SWIDTH 1000 0
DWIDTH 16 0
BBX 16 16 0 -2
BITMAP
0848
0bff
1048
2000
53ff
1084
10fc
1084
10fc
1084
1084
13ff
1004
1004
0000
0000
ENDCHAR
STARTCHAR ch-139
ENCODING 139
SWIDTH 1000 0
DWIDTH 16 0
BBX 16 16 0 -2
BITMAP
0888
0bfe
1088
33fe
5088
17ff
1020
13fe
1222
13fe
1222
17ff
1202
1204
0000
0000
ENDCHAR
STARTCHAR ch-140
ENCODING 140
SWIDTH 1000 0
DWIDTH 16 0
BBX 16 16 0 -2
BITMAP
0800
13ff
2210
43ff
2210
23ff
2210
2210
23ff
2001
2551
2551
2551
200e
0000
0000
ENDCHAR
STARTCHAR ch-141
ENCODING 141
SWIDTH 1000 0
DWIDTH 16 0
BBX 16 16 0 -2
BITMAP
0820
09fe
1084
1048
33ff
5221
1010
13fe
1080
10fe
1082
1102
1214
1008
0000
0000
ENDCHAR
STARTCHAR ch-142
ENCODING 142
SWIDTH 1000 0
DWIDTH 16 0
BBX 16 16 0 -2
BITMAP
0820
13fe
2020
61fc
2104
21fc
2104
21fc
2104
21fc
2104
27ff
2104
2202
0000
0000
ENDCHAR
STARTCHAR ch-145
ENCODING 145
SWIDTH 1000 0
DWIDTH 16 0
BBX 16 16 0 -2
BITMAP
1104
1104
23df
6454
2a54
21bf
2604
2020
27ff
20a8
2124
2623
2020
2020
0000
0000
ENDCHAR
STARTCHAR ch-146
ENCODING 146
SWIDTH 1000 0
DWIDTH 16 0
BBX 16 16 0 -2
BITMAP
17fe
1124
2222
6080
2108
23f0
2020
2042
23fe
2020
27ff
2088
2104
2603
0000
0000
ENDCHAR
STARTCHAR ch-148
ENCODING 148
SWIDTH 1000 0
DWIDTH 16 0
BBX 16 16 0 -2
BITMAP
0888
1088
27ff
4050
23fe
2052
27ff
2052
23fe
2050
2154
2252
2451
2050
0000
0000
ENDCHAR
STARTCHAR ch-149
ENCODING 149
SWIDTH 1000 0
DWIDTH 16 0
BBX 16 16 0 -2
BITMAP
0820
1020
27ff
4441
2090
2110
23fe
2510
29fe
2110
21fe
2110
2110
21fe
0000
0000
ENDCHAR
STARTCHAR ch-150
ENCODING 150
SWIDTH 1000 0
DWIDTH 16 0
BBX 16 16 0 -2
BITMAP
08f8
0904
1222
25fd
5104
11fc
1104
11fc
1200
15fc
1904
1104
11fc
1104
0000
0000
ENDCHAR
STARTCHAR ch-152
ENCODING 152
SWIDTH 1000 0
DWIDTH 16 0
BBX 16 16 0 -2
BITMAP
01c0
0220
0490
0888
1494
2492
4aa9
11c4
0490
0aa8
11c4
7fff
0080
0080
0000
0000
ENDCHAR
STARTCHAR ch-153
ENCODING 153
SWIDTH 1000 0
DWIDTH 16 0
BBX 16 16 0 -2
BITMAP
1088
13fe
2088
67ff
2100
23fe
2522
29fe
2122
21fe
2122
2122
212a
2204
0000
0000
ENDCHAR
STARTCHAR ch-154
ENCODING 154
SWIDTH 1000 0
DWIDTH 16 0
BBX 16 16 0 -2
BITMAP
1208
1108
2fdf
42a2
2442
28a2
2492
2492
2492
2492
2292
210c
228c
2c73
0000
0000
ENDCHAR
STARTCHAR ch-155
ENCODING 155
SWIDTH 1000 0
DWIDTH 16 0
BBX 16 16 0 -2
BITMAP
0820
17ff
2401
4451
2088
2124
2252
2088
2104
2202
25fd
2104
2104
21fc
0000
0000
ENDCHAR
STARTCHAR ch-156
ENCODING 156
SWIDTH 1000 0
DWIDTH 16 0
BBX 16 16 0 -2
BITMAP
0840
08fe
1184
2648
6030
23e0
2200
23fe
2220
2420
27ff
2020
2222
23fe
0000
0000
ENDCHAR
STARTCHAR ch-157
ENCODING 157
SWIDTH 1000 0
DWIDTH 16 0
BBX 16 16 0 -2
BITMAP
0bfe
1202
23fe
4202
23fe
2000
2000
27df
2041
234d
20c3
275d
2041
238e
0000
0000
ENDCHAR
STARTCHAR ch-158
ENCODING 158
SWIDTH 1000 0
DWIDTH 16 0
BBX 16 16 0 -2
BITMAP
0904
1088
23fe
6020
23fe
2020
23fe
2040
2084
21fe
2610
2010
2012
23ff
0000
0000
ENDCHAR
STARTCHAR ch-162
ENCODING 162
SWIDTH 1000 0
DWIDTH 16 0
BBX 16 16 0 -2
BITMAP
1020
17ff
2401
65fd
2020
2040
20a0
2356
2098
2338
2054
2193
2610
2060
0000
0000
ENDCHAR
STARTCHAR ch-163
ENCODING 163
SWIDTH 1000 0
DWIDTH 16 0
BBX 16 16 0 -2
BITMAP
1040
17fe
1040
27fc
6080
2fff
2248
264f
2952
20e0
2150
2248
2c47
2082
0000
0000
ENDCHAR
STARTCHAR ch-172
ENCODING 172
SWIDTH 1000 0
DWIDTH 16 0
BBX 16 16 0 -2
BITMAP
0410
0492
0892
08fe
1850
2888
49ff
0a90
0cfe
0890
08fe
0890
08ff
0880
0000
0000
ENDCHAR
STARTCHAR ch-173
ENCODING 173
SWIDTH 1000 0
DWIDTH 16 0
BBX 16 16 0 -2
BITMAP
0810
13ff
32fe
5212
12ff
1212
12fe
1210
12fe
1292
12fe
1292
12fe
1492
0000
0000
ENDCHAR
STARTCHAR ch-174
ENCODING 174
SWIDTH 1000 0
DWIDTH 16 0
BBX 16 16 0 -2
BITMAP
0444
09ff
1044
31ff
5145
11ff
1145
11ff
1000
10fe
1082
10fe
1082
10fe
0000
0000
ENDCHAR
STARTCHAR ch-175
ENCODING 175
SWIDTH 1000 0
DWIDTH 16 0
BBX 16 16 0 -2
BITMAP
0900
0bfe
12aa
3646
52aa
1312
122a
13fe
1000
1080
12a2
1291
1484
187c
0000
0000
ENDCHAR
STARTCHAR ch-176
ENCODING 176
SWIDTH 1000 0
DWIDTH 16 0
BBX 16 16 0 -2
BITMAP
0820
1421
2421
67ff
2000
27df
2451
27df
2451
27df
2451
2451
2451
2863
0000
0000
ENDCHAR
STARTCHAR ch-177
ENCODING 177
SWIDTH 1000 0
DWIDTH 16 0
BBX 16 16 0 -2
BITMAP
04a2
0922
1222
3055
5088
1100
1308
1548
114f
1148
1148
11a8
1118
110f
0000
0000
ENDCHAR
STARTCHAR ch-178
ENCODING 178
SWIDTH 1000 0
DWIDTH 16 0
BBX 16 16 0 -2
BITMAP
0908
0908
17d0
111f
37e2
5112
1fd2
1214
13d4
1248
1448
1454
1994
1023
0000
0000
ENDCHAR
STARTCHAR ch-179
ENCODING 179
SWIDTH 1000 0
DWIDTH 16 0
BBX 16 16 0 -2
BITMAP
0820
0fff
1020
33fe
5222
13fe
1222
13fe
1021
17ff
1004
17ff
1204
101c
0000
0000
ENDCHAR
STARTCHAR ch-180
ENCODING 180
SWIDTH 1000 0
DWIDTH 16 0
BBX 16 16 0 -2
BITMAP
0fff
1400
247c
6444
2444
2444
247c
2400
25ef
2529
2529
25ef
2400
27ff
0000
0000
ENDCHAR
STARTCHAR ch-181
ENCODING 181
SWIDTH 1000 0
DWIDTH 16 0
BBX 16 16 0 -2
BITMAP
0410
09ff
1010
31ff
5010
11ff
10fe
1082
10be
10fa
1082
10fe
1082
1101
0000
0000
ENDCHAR
STARTCHAR ch-182
ENCODING 182
SWIDTH 1000 0
DWIDTH 16 0
BBX 16 16 0 -2
BITMAP
080a
0809
13ff
3208
5248
1278
1248
13f8
1248
12e9
135a
1244
144b
10d1
0000
0000
ENDCHAR
STARTCHAR ch-183
ENCODING 183
SWIDTH 1000 0
DWIDTH 16 0
BBX 16 16 0 -2
BITMAP
0480
08ff
1100
32fe
5082
10fe
1082
10fe
13ff
1080
11ff
1225
1049
1092
0000
0000
ENDCHAR
STARTCHAR ch-184
ENCODING 184
SWIDTH 1000 0
DWIDTH 16 0
BBX 16 16 0 -2
BITMAP
0410
0410
09ff
1955
2892
4955
0810
0955
0892
0955
0828
0844
0882
0901
0000
0000
ENDCHAR
STARTCHAR ch-186
ENCODING 186
SWIDTH 1000 0
DWIDTH 16 0
BBX 16 16 0 -2
BITMAP
0910
09de
1252
3354
5488
1288
1104
12fb
1400
13fe
10a8
1126
1222
1020
0000
0000
ENDCHAR
STARTCHAR ch-187
ENCODING 187
SWIDTH 1000 0
DWIDTH 16 0
BBX 16 16 0 -2
BITMAP
0840
0bff
128a
1272
328a
53fe
1104
1283
14fd
1148
1230
1048
1187
1602
0000
0000
ENDCHAR
STARTCHAR ch-189
ENCODING 189
SWIDTH 1000 0
DWIDTH 16 0
BBX 16 16 0 -2
BITMAP
0820
17ff
2104
67ff
2000
23fe
2202
23fe
2202
23fe
2020
27ff
2020
2020
0000
0000
ENDCHAR
STARTCHAR ch-190
ENCODING 190
SWIDTH 1000 0
DWIDTH 16 0
BBX 16 16 0 -2
BITMAP
087f
0808
1410
343e
5422
17a2
143e
1422
143e
14a2
153e
1608
1014
1022
0000
0000
ENDCHAR
STARTCHAR ch-191
ENCODING 191
SWIDTH 1000 0
DWIDTH 16 0
BBX 16 16 0 -2
BITMAP
0fff
1020
213c
6120
27ff
2100
21fc
2100
21ff
2001
2529
2529
2001
201e
0000
0000
ENDCHAR
STARTCHAR ch-193
ENCODING 193
SWIDTH 1000 0
DWIDTH 16 0
BBX 16 16 0 -2
BITMAP
11fc
2421
6222
27ff
2070
20a8
2124
2663
2020
2500
2542
2521
2104
21fc
0000
0000
ENDCHAR
STARTCHAR ch-194
ENCODING 194
SWIDTH 1000 0
DWIDTH 16 0
BBX 16 16 0 -2
BITMAP
0420
09fc
1124
33fe
5124
11fc
13fe
1222
13fe
10a8
13fe
1050
1020
13de
0000
0000
ENDCHAR
STARTCHAR ch-196
ENCODING 196
SWIDTH 1000 0
DWIDTH 16 0
BBX 16 16 0 -2
BITMAP
0bfe
1050
23fe
6252
23fe
2000
23fe
2000
27ff
2124
2222
2421
2020
2020
0000
0000
ENDCHAR
STARTCHAR ch-197
ENCODING 197
SWIDTH 1000 0
DWIDTH 16 0
BBX 16 16 0 -2
BITMAP
0484
0bff
1084
30fc
5010
11fe
1112
11fe
1010
11fe
1010
11fe
1010
13ff
0000
0000
ENDCHAR
STARTCHAR ch-198
ENCODING 198
SWIDTH 1000 0
DWIDTH 16 0
BBX 16 16 0 -2
BITMAP
0810
15ff
2210
60fe
2e92
22fe
2492
28fe
2410
23ff
2210
2410
2a00
31ff
0000
0000
ENDCHAR
STARTCHAR ch-199
ENCODING 199
SWIDTH 1000 0
DWIDTH 16 0
BBX 16 16 0 -2
BITMAP
0bdf
0841
134d
3145
5249
1082
1020
1050
1088
1124
1653
1020
1008
10f0
0000
0000
ENDCHAR
STARTCHAR ch-200
ENCODING 200
SWIDTH 1000 0
DWIDTH 16 0
BBX 16 16 0 -2
BITMAP
0bfe
1202
23fe
6202
23fe
27ff
2489
27ff
2000
21fc
2088
2050
2020
23de
0000
0000
ENDCHAR
STARTCHAR ch-201
ENCODING 201
SWIDTH 1000 0
DWIDTH 16 0
BBX 16 16 0 -2
BITMAP
01c0
0220
0410
0808
17f4
2002
5f7d
1144
1144
1f7c
0000
0410
0a28
3146
0000
0000
ENDCHAR
STARTCHAR ch-202
ENCODING 202
SWIDTH 1000 0
DWIDTH 16 0
BBX 16 16 0 -2
BITMAP
0bfe
1050
23fe
6252
23fe
2080
27ff
2104
22fa
2489
20f0
2081
2081
20ff
0000
0000
ENDCHAR
STARTCHAR ch-203
ENCODING 203
SWIDTH 1000 0
DWIDTH 16 0
BBX 16 16 0 -2
BITMAP
0438
0844
10ba
3101
527c
1008
10fe
1082
10fe
10fe
1082
10fe
1082
1101
0000
0000
ENDCHAR
STARTCHAR ch-206
ENCODING 206
SWIDTH 1000 0
DWIDTH 16 0
BBX 16 16 0 -2
BITMAP
05ef
0929
1129
31ef
5108
1129
11ef
1044
11ff
1044
11ff
1044
1082
1101
0000
0000
ENDCHAR
STARTCHAR ch-207
ENCODING 207
SWIDTH 1000 0
DWIDTH 16 0
BBX 16 16 0 -2
BITMAP
0880
08f8
1110
33fe
5622
13fe
10a2
1334
1058
1398
1057
1390
1050
1020
0000
0000
ENDCHAR
STARTCHAR ch-209
ENCODING 209
SWIDTH 1000 0
DWIDTH 16 0
BBX 16 16 0 -2
BITMAP
0400
09ff
1810
29ff
4828
087c
08c6
097d
0800
09ff
097d
0945
097d
0907
0000
0000
ENDCHAR
STARTCHAR ch-211
ENCODING 211
SWIDTH 1000 0
DWIDTH 16 0
BBX 16 16 0 -2
BITMAP
0820
0bfe
1222
33fe
5020
17ff
13fe
1202
13fa
13fa
1202
13fe
1104
1202
0000
0000
ENDCHAR
STARTCHAR ch-212
ENCODING 212
SWIDTH 1000 0
DWIDTH 16 0
BBX 16 16 0 -2
BITMAP
0888
17ff
3050
53fe
1252
128a
1272
1202
13fe
1004
17ff
1204
1104
101c
0000
0000
ENDCHAR
STARTCHAR ch-213
ENCODING 213
SWIDTH 1000 0
DWIDTH 16 0
BBX 16 16 0 -2
BITMAP
0a52
0954
17ff
3104
5088
13fe
1020
13fe
1020
17ff
1020
1050
1088
1306
0000
0000
ENDCHAR
STARTCHAR ch-214
ENCODING 214
SWIDTH 1000 0
DWIDTH 16 0
BBX 16 16 0 -2
BITMAP
0410
09ff
1010
30fe
5000
10fe
1082
10fe
1028
11ff
1028
10fe
1082
10fe
0000
0000
ENDCHAR
STARTCHAR ch-215
ENCODING 215
SWIDTH 1000 0
DWIDTH 16 0
BBX 16 16 0 -2
BITMAP
0904
1555
338e
5104
128a
1451
1000
17ff
1441
13fe
1042
1082
1102
120c
0000
0000
ENDCHAR
STARTCHAR ch-218
ENCODING 218
SWIDTH 1000 0
DWIDTH 16 0
BBX 16 16 0 -2
BITMAP
0840
0ffe
10a0
1514
3208
57ff
1a0a
13f8
1208
13f8
1150
124c
1544
1080
0000
0000
ENDCHAR
STARTCHAR ch-219
ENCODING 219
SWIDTH 1000 0
DWIDTH 16 0
BBX 16 16 0 -2
BITMAP
1450
1450
2fff
6451
2445
27c5
2444
2444
27c4
2444
2444
2fe4
228a
2451
0000
0000
ENDCHAR
STARTCHAR ch-221
ENCODING 221
SWIDTH 1000 0
DWIDTH 16 0
BBX 16 16 0 -2
BITMAP
0bff
0a01
13ff
3200
527c
1208
12fe
1208
1238
13ff
1222
13ff
1422
1066
0000
0000
ENDCHAR
STARTCHAR ch-224
ENCODING 224
SWIDTH 1000 0
DWIDTH 16 0
BBX 16 16 0 -2
BITMAP
09fc
1020
3124
50a8
17ff
10a8
1124
1222
1401
13fe
1222
13fe
1222
13fe
0000
0000
ENDCHAR
STARTCHAR ch-227
ENCODING 227
SWIDTH 1000 0
DWIDTH 16 0
BBX 16 16 0 -2
BITMAP
0904
17df
3104
57df
1104
128a
1451
1000
13fe
1202
13fe
1202
13fe
1202
0000
0000
ENDCHAR
STARTCHAR ch-228
ENCODING 228
SWIDTH 1000 0
DWIDTH 16 0
BBX 16 16 0 -2
BITMAP
17df
1451
37df
5000
13fe
1222
13fe
1222
13fe
1020
17ff
1020
1020
1020
0000
0000
ENDCHAR
STARTCHAR ch-229
ENCODING 229
SWIDTH 1000 0
DWIDTH 16 0
BBX 16 16 0 -2
BITMAP
0820
13fe
2020
67ff
2104
27df
2104
27df
2000
27ff
2120
2120
2221
241f
0000
0000
ENDCHAR
STARTCHAR ch-230
ENCODING 230
SWIDTH 1000 0
DWIDTH 16 0
BBX 16 16 0 -2
BITMAP
0908
090c
1fea
1008
37ff
5448
144c
17cc
1114
1594
1554
1965
1325
1043
0000
0000
ENDCHAR
STARTCHAR ch-231
ENCODING 231
SWIDTH 1000 0
DWIDTH 16 0
BBX 16 16 0 -2
BITMAP
0904
1088
27ff
6525
24a9
2471
27ff
2000
23fe
2202
23fe
2202
23fe
2202
0000
0000
ENDCHAR
STARTCHAR ch-232
ENCODING 232
SWIDTH 1000 0
DWIDTH 16 0
BBX 16 16 0 -2
BITMAP
0820
0bfe
10a8
37ff
5088
13fe
1202
13fe
1202
13fe
1202
13fe
1104
1603
0000
0000
ENDCHAR
STARTCHAR ch-233
ENCODING 233
SWIDTH 1000 0
DWIDTH 16 0
BBX 16 16 0 -2
BITMAP
05ef
0929
11ef
3129
51ef
1101
117d
1145
117d
1145
117d
1145
118d
1103
0000
0000
ENDCHAR
STARTCHAR ch-234
ENCODING 234
SWIDTH 1000 0
DWIDTH 16 0
BBX 16 16 0 -2
BITMAP
09fc
0808
1050
37ff
50a2
1124
1060
17ff
1489
1489
1575
1451
1471
1403
0000
0000
ENDCHAR
STARTCHAR ch-236
ENCODING 236
SWIDTH 1000 0
DWIDTH 16 0
BBX 16 16 0 -2
BITMAP
0920
0910
11ff
3310
55fe
1110
11fe
1110
1110
11ff
1000
1292
1249
1449
0000
0000
ENDCHAR
STARTCHAR ch-237
ENCODING 237
SWIDTH 1000 0
DWIDTH 16 0
BBX 16 16 0 -2
BITMAP
0fdf
0d14
1514
17df
3104
530c
1555
19a7
13fc
1204
13fc
1204
13fc
1204
0000
0000
ENDCHAR
STARTCHAR ch-238
ENCODING 238
SWIDTH 1000 0
DWIDTH 16 0
BBX 16 16 0 -2
BITMAP
0820
0bfe
1050
27ff
6000
21fc
2124
21fc
2124
21fc
2020
23fe
2020
27ff
0000
0000
ENDCHAR
STARTCHAR ch-239
ENCODING 239
SWIDTH 1000 0
DWIDTH 16 0
BBX 16 16 0 -2
BITMAP
0492
0854
13ff
3054
5092
1111
1000
1082
11ff
1232
1152
109f
1102
1202
0000
0000
ENDCHAR
STARTCHAR ch-240
ENCODING 240
SWIDTH 1000 0
DWIDTH 16 0
BBX 16 16 0 -2
BITMAP
0808
7f7f
0808
7f7f
4949
4949
1c1c
2a2a
4949
0080
0080
0140
0220
7c1f
0000
0000
ENDCHAR
STARTCHAR ch-241
ENCODING 241
SWIDTH 1000 0
DWIDTH 16 0
BBX 16 16 0 -2
BITMAP
0401
09fe
1100
31ff
5101
11ff
1144
11ff
1144
117f
1244
107f
1044
107f
0000
0000
ENDCHAR
STARTCHAR ch-243
ENCODING 243
SWIDTH 1000 0
DWIDTH 16 0
BBX 16 16 0 -2
BITMAP
0fff
0850
13fe
1252
3252
53fe
1124
10a8
17ff
10a8
1124
1223
1422
1020
0000
0000
ENDCHAR
STARTCHAR ch-245
ENCODING 245
SWIDTH 1000 0
DWIDTH 16 0
BBX 16 16 0 -2
BITMAP
0800
0bff
11fe
3122
51fe
1122
11fe
13ff
11fe
1122
11fe
1122
11fe
13ff
0000
0000
ENDCHAR
STARTCHAR ch-246
ENCODING 246
SWIDTH 1000 0
DWIDTH 16 0
BBX 16 16 0 -2
BITMAP
0800
17ff
1451
3451
57df
1050
17df
1451
17df
1451
17df
1040
1040
107f
0000
0000
ENDCHAR
STARTCHAR ch-248
ENCODING 248
SWIDTH 1000 0
DWIDTH 16 0
BBX 16 16 0 -2
BITMAP
0904
17df
3104
538e
1555
1104
13fe
1000
17ff
1020
10a8
1727
1020
1020
0000
0000
ENDCHAR
STARTCHAR ch-249
ENCODING 249
SWIDTH 1000 0
DWIDTH 16 0
BBX 16 16 0 -2
BITMAP
0800
0bfe
1088
33fe
528a
13fe
11fc
1104
11fc
1104
11fc
1104
11fc
1202
0000
0000
ENDCHAR
STARTCHAR ch-251
ENCODING 251
SWIDTH 1000 0
DWIDTH 16 0
BBX 16 16 0 -2
BITMAP
0810
1788
14ff
24a2
2494
6788
247f
2408
2788
26be
2a88
2388
2208
2008
0000
0000
ENDCHAR
STARTCHAR ch-253
ENCODING 253
SWIDTH 1000 0
DWIDTH 16 0
BBX 16 16 0 -2
BITMAP
0800
0b84
1115
37d5
5104
1384
154a
1111
1000
12a4
1292
1280
1482
107e
0000
0000
ENDCHAR
STARTCHAR ch-254
ENCODING 254
SWIDTH 1000 0
DWIDTH 16 0
BBX 16 16 0 -2
BITMAP
0bfe
1124
3222
57ff
1441
16a3
1289
14f8
1040
11fc
1250
1020
1050
178f
0000
0000
ENDCHAR
STARTCHAR ch-255
ENCODING 255
SWIDTH 1000 0
DWIDTH 16 0
BBX 16 16 0 -2
BITMAP
0840
0820
17ff
3489
57ff
1088
13fe
1088
17ff
1124
1222
15fd
1020
17ff
0000
0000
ENDCHAR
STARTCHAR ch-256
ENCODING 256
SWIDTH 1000 0
DWIDTH 16 0
BBX 16 16 0 -2
BITMAP
0904
0888
13fe
3020
53fe
1020
13fe
11e0
108a
17ff
1088
118a
1684
110b
0000
0000
ENDCHAR
STARTCHAR ch-258
ENCODING 258
SWIDTH 1000 0
DWIDTH 16 0
BBX 16 16 0 -2
BITMAP
0850
0bfe
1252
33fe
5252
13fe
13fe
1200
13fe
1200
13fe
1294
1288
14d7
0000
0000
ENDCHAR
STARTCHAR ch-259
ENCODING 259
SWIDTH 1000 0
DWIDTH 16 0
BBX 16 16 0 -2
BITMAP
0840
0820
17ff
33fe
52fa
128a
12fa
13fe
11fc
1104
11fc
1104
11fc
17ff
0000
0000
ENDCHAR
STARTCHAR ch-260
ENCODING 260
SWIDTH 1000 0
DWIDTH 16 0
BBX 16 16 0 -2
BITMAP
0820
0bfe
1088
37ff
5000
11fc
1104
11fc
1104
11fc
1448
1525
1501
10ff
0000
0000
ENDCHAR
STARTCHAR ch-261
ENCODING 261
SWIDTH 1000 0
DWIDTH 16 0
BBX 16 16 0 -2
BITMAP
0820
0924
10a8
37ff
5401
14f9
1088
10f8
1000
13fe
1222
13fe
1222
13fe
0000
0000
ENDCHAR
STARTCHAR ch-262
ENCODING 262
SWIDTH 1000 0
DWIDTH 16 0
BBX 16 16 0 -2
BITMAP
1290
17d0
1290
201f
6422
27c2
2452
2854
2754
2548
2754
2054
2163
2082
0000
0000
ENDCHAR
STARTCHAR ch-263
ENCODING 263
SWIDTH 1000 0
DWIDTH 16 0
BBX 16 16 0 -2
BITMAP
0bfe
0a52
13fe
3000
57ff
1000
11fc
1104
11fc
1062
1094
1188
16c7
1082
0000
0000
ENDCHAR
STARTCHAR ch-264
ENCODING 264
SWIDTH 1000 0
DWIDTH 16 0
BBX 16 16 0 -2
BITMAP
0870
0888
1104
32fa
5401
13fe
1326
12aa
13fe
11fc
1104
11fc
1104
11fc
0000
0000
ENDCHAR
STARTCHAR ch-265
ENCODING 265
SWIDTH 1000 0
DWIDTH 16 0
BBX 16 16 0 -2
BITMAP
0470
0888
1104
32fa
5401
13de
1252
1252
13de
1084
1108
1294
1462
1441
0000
0000
ENDCHAR
STARTCHAR ch-266
ENCODING 266
SWIDTH 1000 0
DWIDTH 16 0
BBX 16 16 0 -2
BITMAP
0904
0904
17df
3104
538e
1555
1104
17ff
1021
1020
113e
1120
12a0
147f
0000
0000
ENDCHAR
STARTCHAR ch-267
ENCODING 267
SWIDTH 1000 0
DWIDTH 16 0
BBX 16 16 0 -2
BITMAP
0440
04fc
0908
13ff
3644
5292
13ff
12fe
1200
12fe
1200
14fe
1882
10fe
0000
0000
ENDCHAR
STARTCHAR ch-268
ENCODING 268
SWIDTH 1000 0
DWIDTH 16 0
BBX 16 16 0 -2
BITMAP
0908
0a10
17ff
3442
57c2
1442
17d2
1112
17d2
1212
13ca
1244
144a
1191
0000
0000
ENDCHAR
STARTCHAR ch-272
ENCODING 272
SWIDTH 1000 0
DWIDTH 16 0
BBX 16 16 0 -2
BITMAP
0820
0810
11ff
2a01
48fe
0854
0838
08fe
0982
0afa
08be
08fe
0844
0882
0000
0000
ENDCHAR
STARTCHAR ch-273
ENCODING 273
SWIDTH 1000 0
DWIDTH 16 0
BBX 16 16 0 -2
BITMAP
0bfe
1202
33fe
5202
13fe
1104
1249
17df
1104
1249
17df
1000
1292
1449
0000
0000
ENDCHAR
STARTCHAR ch-274
ENCODING 274
SWIDTH 1000 0
DWIDTH 16 0
BBX 16 16 0 -2
BITMAP
09fe
0820
13ff
32a9
5472
11ac
1020
17ff
1040
13fe
1252
1252
1252
1206
0000
0000
ENDCHAR
STARTCHAR ch-275
ENCODING 275
SWIDTH 1000 0
DWIDTH 16 0
BBX 16 16 0 -2
BITMAP
0820
09fc
1020
31fc
51fc
1104
11fc
17ff
15fd
1449
11fc
1020
11fc
13fe
0000
0000
ENDCHAR
STARTCHAR ch-276
ENCODING 276
SWIDTH 1000 0
DWIDTH 16 0
BBX 16 16 0 -2
BITMAP
0820
0820
13fe
3020
50f8
17ff
11f9
1022
11f8
17ff
1384
12bf
13a4
1018
0000
0000
ENDCHAR
STARTCHAR ch-277
ENCODING 277
SWIDTH 1000 0
DWIDTH 16 0
BBX 16 16 0 -2
BITMAP
0840
0820
17ff
2052
57a4
12ac
14ab
10ac
1104
11fc
1104
11fc
1104
1204
0000
0000
ENDCHAR
STARTCHAR ch-279
ENCODING 279
SWIDTH 1000 0
DWIDTH 16 0
BBX 16 16 0 -2
BITMAP
0c00
17bf
2402
6454
27c8
247f
2789
2a08
2208
222e
2fa8
2228
2558
288f
0000
0000
ENDCHAR
STARTCHAR ch-280
ENCODING 280
SWIDTH 1000 0
DWIDTH 16 0
BBX 16 16 0 -2
BITMAP
0820
0820
11fc
1024
37ff
5024
11fc
1020
17ff
1252
11fc
1154
1154
17ff
0000
0000
ENDCHAR
STARTCHAR ch-282
ENCODING 282
SWIDTH 1000 0
DWIDTH 16 0
BBX 16 16 0 -2
BITMAP
0888
17fe
3088
53fe
1252
13fe
1000
17ff
1441
10fc
1184
1248
1030
17c0
0000
0000
ENDCHAR
STARTCHAR ch-284
ENCODING 284
SWIDTH 1000 0
DWIDTH 16 0
BBX 16 16 0 -2
BITMAP
0820
17ff
3441
55a9
1286
10fc
1000
11fc
1154
17ff
1000
17ff
1020
1060
0000
0000
ENDCHAR
STARTCHAR ch-287
ENCODING 287
SWIDTH 1000 0
DWIDTH 16 0
BBX 16 16 0 -2
BITMAP
0924
08a8
17ff
35fd
5104
11fc
1000
11fc
1104
11fc
11f4
1104
11fc
1202
0000
0000
ENDCHAR
STARTCHAR ch-288
ENCODING 288
SWIDTH 1000 0
DWIDTH 16 0
BBX 16 16 0 -2
BITMAP
0924
0a48
1124
37fe
5422
14da
17fe
1448
1778
1448
1778
1449
1555
1662
0000
0000
ENDCHAR
STARTCHAR ch-289
ENCODING 289
SWIDTH 1000 0
DWIDTH 16 0
BBX 16 16 0 -2
BITMAP
09fc
0924
11fc
3124
51fc
1000
17df
1555
1555
17df
1555
1555
17df
1451
0000
0000
ENDCHAR
STARTCHAR ch-290
ENCODING 290
SWIDTH 1000 0
DWIDTH 16 0
BBX 16 16 0 -2
BITMAP
0420
083c
13ff
3221
52fc
123c
127c
1254
127c
1254
127c
1251
1542
127e
0000
0000
ENDCHAR
STARTCHAR ch-292
ENCODING 292
SWIDTH 1000 0
DWIDTH 16 0
BBX 16 16 0 -2
BITMAP
09fc
0904
11fc
3104
51fc
1088
17ff
1088
17ff
122a
15f1
1068
10a4
1122
0000
0000
ENDCHAR
STARTCHAR ch-293
ENCODING 293
SWIDTH 1000 0
DWIDTH 16 0
BBX 16 16 0 -2
BITMAP
0410
08fe
1010
30fe
51ff
1129
11ff
10fe
1082
10fe
10fe
1082
10fe
1101
0000
0000
ENDCHAR
STARTCHAR ch-294
ENCODING 294
SWIDTH 1000 0
DWIDTH 16 0
BBX 16 16 0 -2
BITMAP
0810
0bff
1248
32fe
524a
12fe
1288
1288
12ee
1289
12ef
1400
1a4a
1249
0000
0000
ENDCHAR
STARTCHAR ch-297
ENCODING 297
SWIDTH 1000 0
DWIDTH 16 0
BBX 16 16 0 -2
BITMAP
081e
0f92
149e
3492
579e
1492
14a0
17bf
14d5
1495
1795
1029
1301
1486
0000
0000
ENDCHAR
STARTCHAR ch-298
ENCODING 298
SWIDTH 1000 0
DWIDTH 16 0
BBX 16 16 0 -2
BITMAP
0bff
0840
10fc
3084
50fc
10f4
13ff
1353
1145
1238
107c
10a8
1110
10ee
0000
0000
ENDCHAR
STARTCHAR ch-301
ENCODING 301
SWIDTH 1000 0
DWIDTH 16 0
BBX 16 16 0 -2
BITMAP
0800
113e
37e2
52a2
113e
17e2
113e
17e2
113e
1394
1554
1935
1115
1163
0000
0000
ENDCHAR
STARTCHAR ch-302
ENCODING 302
SWIDTH 1000 0
DWIDTH 16 0
BBX 16 16 0 -2
BITMAP
0bff
1211
32ee
5244
12ff
1244
12ee
1355
1244
1210
1210
125c
1450
19ff
0000
0000
ENDCHAR
STARTCHAR ch-304
ENCODING 304
SWIDTH 1000 0
DWIDTH 16 0
BBX 16 16 0 -2
BITMAP
0888
17ff
3088
5088
1050
11fc
1044
10fe
1102
13ff
1555
1155
1001
1006
0000
0000
ENDCHAR
STARTCHAR ch-305
ENCODING 305
SWIDTH 1000 0
DWIDTH 16 0
BBX 16 16 0 -2
BITMAP
0488
0bee
1148
33ee
5002
13ee
1228
122e
13e8
122e
1228
13ee
1229
126f
0000
0000
ENDCHAR
STARTCHAR ch-306
ENCODING 306
SWIDTH 1000 0
DWIDTH 16 0
BBX 16 16 0 -2
BITMAP
1208
1108
203e
6789
200a
27bf
2010
27bf
2051
279f
2491
2491
279f
2491
0000
0000
ENDCHAR
STARTCHAR ch-307
ENCODING 307
SWIDTH 1000 0
DWIDTH 16 0
BBX 16 16 0 -2
BITMAP
09f8
0a10
13fe
2202
53fe
1108
11ee
11fe
1210
13fe
1222
13fe
1095
171f
0000
0000
ENDCHAR
STARTCHAR ch-308
ENCODING 308
SWIDTH 1000 0
DWIDTH 16 0
BBX 16 16 0 -2
BITMAP
0410
09ff
11ef
3129
51ef
1044
11ff
1044
11ff
1044
11ff
118a
10a4
11cb
0000
0000
ENDCHAR
STARTCHAR ch-309
ENCODING 309
SWIDTH 1000 0
DWIDTH 16 0
BBX 16 16 0 -2
BITMAP
0880
10fe
2128
6410
2428
2444
24fe
25d7
24ba
24fe
2410
20fe
21ff
2249
0000
0000
ENDCHAR
STARTCHAR ch-311
ENCODING 311
SWIDTH 1000 0
DWIDTH 16 0
BBX 16 16 0 -2
BITMAP
0bdf
0800
13de
335a
52d6
13ff
1248
13ff
1249
13ff
1308
13ce
1529
11ef
0000
0000
ENDCHAR
STARTCHAR ch-312
ENCODING 312
SWIDTH 1000 0
DWIDTH 16 0
BBX 16 16 0 -2
BITMAP
1002
17ff
1492
2492
67fe
2428
2948
2eff
2448
297e
2f48
247e
2d48
357f
0000
0000
ENDCHAR
STARTCHAR ch-313
ENCODING 313
SWIDTH 1000 0
DWIDTH 16 0
BBX 16 16 0 -2
BITMAP
094a
11ef
3042
51ef
114a
1063
10fe
1082
10fe
1082
10fe
1082
10fe
1101
0000
0000
ENDCHAR
STARTCHAR ch-314
ENCODING 314
SWIDTH 1000 0
DWIDTH 16 0
BBX 16 16 0 -2
BITMAP
1288
37d2
52b2
139f
1112
17d2
155f
17d2
1112
17df
1112
17d2
1292
145f
0000
0000
ENDCHAR
STARTCHAR ch-315
ENCODING 315
SWIDTH 1000 0
DWIDTH 16 0
BBX 16 16 0 -2
BITMAP
0924
08a8
17ff
34f9
548a
10f8
13fe
1272
13fe
1020
11fc
1020
13fe
1252
0000
0000
ENDCHAR
STARTCHAR ch-316
ENCODING 316
SWIDTH 1000 0
DWIDTH 16 0
BBX 16 16 0 -2
BITMAP
0bde
0a52
13de
33ff
52e8
124e
13f2
12b2
12e2
12aa
12ea
12a4
15e4
102b
0000
0000
ENDCHAR
STARTCHAR ch-317
ENCODING 317
SWIDTH 1000 0
DWIDTH 16 0
BBX 16 16 0 -2
BITMAP
05fc
0924
11fc
31fc
57df
1555
17df
17df
1088
11f0
1022
13fe
10a8
1124
0000
0000
ENDCHAR
STARTCHAR ch-319
ENCODING 319
SWIDTH 1000 0
DWIDTH 16 0
BBX 16 16 0 -2
BITMAP
0820
0820
0820
0820
0820
0820
0820
0820
0820
0821
0821
1021
2021
403f
0000
0000
ENDCHAR
STARTCHAR ch-320
ENCODING 320
SWIDTH 1000 0
DWIDTH 16 0
BBX 16 16 0 -2
BITMAP
0002
7fff
0220
0220
0220
0220
0220
0220
0220
0420
0421
0821
101f
2000
0000
0000
ENDCHAR
STARTCHAR ch-321
ENCODING 321
SWIDTH 1000 0
DWIDTH 16 0
BBX 16 16 0 -2
BITMAP
0100
0220
0410
0808
3ffc
1244
0244
0240
0440
0440
0841
0841
1041
603f
0000
0000
ENDCHAR
STARTCHAR ch-323
ENCODING 323
SWIDTH 1000 0
DWIDTH 16 0
BBX 16 16 0 -2
BITMAP
0008
1ffc
0000
0002
7fff
0220
0220
0220
0220
0420
0421
0821
1021
601f
0000
0000
ENDCHAR
STARTCHAR ch-324
ENCODING 324
SWIDTH 1000 0
DWIDTH 16 0
BBX 16 16 0 -2
BITMAP
0004
1ffe
1004
1004
1004
1ffc
1224
0220
0220
0420
0421
0821
1021
201f
0000
0000
ENDCHAR
STARTCHAR ch-325
ENCODING 325
SWIDTH 1000 0
DWIDTH 16 0
BBX 16 16 0 -2
BITMAP
0080
0082
7fff
0100
0220
0410
1ff8
0224
0220
0220
0421
0421
0821
301f
0000
0000
ENDCHAR
STARTCHAR ch-326
ENCODING 326
SWIDTH 1000 0
DWIDTH 16 0
BBX 16 16 0 -2
BITMAP
0240
0240
324c
0a50
0a60
0240
0260
0e50
324c
0440
0441
0841
1041
603f
0000
0000
ENDCHAR
STARTCHAR ch-327
ENCODING 327
SWIDTH 1000 0
DWIDTH 16 0
BBX 16 16 0 -2
BITMAP
2008
2448
2288
2108
2288
2448
2008
3ff8
2448
0440
0440
0841
1041
607f
0000
0000
ENDCHAR
STARTCHAR ch-328
ENCODING 328
SWIDTH 1000 0
DWIDTH 16 0
BBX 16 16 0 -2
BITMAP
0080
0888
0ffc
0880
1080
0082
7fff
0240
0240
0440
0441
0841
1041
603f
0000
0000
ENDCHAR
STARTCHAR ch-329
ENCODING 329
SWIDTH 1000 0
DWIDTH 16 0
BBX 16 16 0 -2
BITMAP
0080
0886
0488
0490
0082
7fff
0220
0220
0220
0420
0421
0821
101f
2000
0000
0000
ENDCHAR
STARTCHAR ch-331
ENCODING 331
SWIDTH 1000 0
DWIDTH 16 0
BBX 16 16 0 -2
BITMAP
0080
0082
7fff
0080
0080
1ffc
1004
1004
1ffc
0220
0220
0421
0821
701f
0000
0000
ENDCHAR
STARTCHAR ch-332
ENCODING 332
SWIDTH 1000 0
DWIDTH 16 0
BBX 16 16 0 -2
BITMAP
0c70
1818
700e
1ffc
1008
1008
1008
1ff8
1228
0220
0421
0421
0821
701f
0000
0000
ENDCHAR
STARTCHAR ch-333
ENCODING 333
SWIDTH 1000 0
DWIDTH 16 0
BBX 16 16 0 -2
BITMAP
0400
0ff0
0820
1044
3ffe
5084
1084
1ffc
10c4
0140
0240
0441
1841
603f
0000
0000
ENDCHAR
STARTCHAR ch-338
ENCODING 338
SWIDTH 1000 0
DWIDTH 16 0
BBX 16 16 0 -2
BITMAP
0200
1c3c
1004
1004
1f7c
1004
1004
1ffc
1224
0220
0220
0421
0821
701f
0000
0000
ENDCHAR
STARTCHAR ch-340
ENCODING 340
SWIDTH 1000 0
DWIDTH 16 0
BBX 16 16 0 -2
BITMAP
0400
07f0
0820
1044
3ffe
5084
1084
1ffc
1144
0240
0251
0449
0841
303f
0000
0000
ENDCHAR
STARTCHAR ch-341
ENCODING 341
SWIDTH 1000 0
DWIDTH 16 0
BBX 16 16 0 -2
BITMAP
0004
1e3e
1224
1224
13e4
1004
1ffc
1224
0220
0220
0421
0821
1021
601f
0000
0000
ENDCHAR
STARTCHAR ch-343
ENCODING 343
SWIDTH 1000 0
DWIDTH 16 0
BBX 16 16 0 -2
BITMAP
0100
0082
7fff
0410
180c
6ffb
0808
0808
0ff8
0220
0220
0420
0821
303f
0000
0000
ENDCHAR
STARTCHAR ch-345
ENCODING 345
SWIDTH 1000 0
DWIDTH 16 0
BBX 16 16 0 -2
BITMAP
0800
0808
7f08
0808
0808
7f08
417f
4108
7f08
1208
1208
1209
2201
43ff
0000
0000
ENDCHAR
STARTCHAR ch-346
ENCODING 346
SWIDTH 1000 0
DWIDTH 16 0
BBX 16 16 0 -2
BITMAP
1084
0888
0490
7fff
4001
4ff9
0808
0808
0ff8
0a28
0220
0221
0421
783f
0000
0000
ENDCHAR
STARTCHAR ch-347
ENCODING 347
SWIDTH 1000 0
DWIDTH 16 0
BBX 16 16 0 -2
BITMAP
0800
0802
7f3c
0808
0808
7f08
417f
4108
7f08
1208
1208
1209
2201
43ff
0000
0000
ENDCHAR
STARTCHAR ch-348
ENCODING 348
SWIDTH 1000 0
DWIDTH 16 0
BBX 16 16 0 -2
BITMAP
0080
0902
33ef
2222
2222
23e2
2222
2a2a
33e6
0000
0220
0421
0821
701f
0000
0000
ENDCHAR
STARTCHAR ch-349
ENCODING 349
SWIDTH 1000 0
DWIDTH 16 0
BBX 16 16 0 -2
BITMAP
0800
0818
7f24
0842
0881
7f00
417f
4109
7f11
1221
1243
1200
2201
43ff
0000
0000
ENDCHAR
STARTCHAR ch-350
ENCODING 350
SWIDTH 1000 0
DWIDTH 16 0
BBX 16 16 0 -2
BITMAP
0800
0802
7f3c
0810
087e
7f10
4110
417e
7f10
1211
121f
1200
2201
43ff
0000
0000
ENDCHAR
STARTCHAR ch-351
ENCODING 351
SWIDTH 1000 0
DWIDTH 16 0
BBX 16 16 0 -2
BITMAP
0808
2828
3e3e
2828
4848
0808
7f7f
1414
1414
1414
1414
1515
2525
4747
0000
0000
ENDCHAR
STARTCHAR ch-353
ENCODING 353
SWIDTH 1000 0
DWIDTH 16 0
BBX 16 16 0 -2
BITMAP
0800
087f
7f08
0810
087f
7f41
4141
417f
7f41
1241
127f
1200
2201
43ff
0000
0000
ENDCHAR
STARTCHAR ch-354
ENCODING 354
SWIDTH 1000 0
DWIDTH 16 0
BBX 16 16 0 -2
BITMAP
0410
0410
7f7f
0410
3f7e
2142
2142
3f7e
0a28
0aa8
0b28
1249
2089
4107
0000
0000
ENDCHAR
STARTCHAR ch-355
ENCODING 355
SWIDTH 1000 0
DWIDTH 16 0
BBX 16 16 0 -2
BITMAP
1000
11ff
7d00
117f
1149
7d7f
4549
457f
7d08
293e
2908
2a7f
2801
4fff
0000
0000
ENDCHAR
STARTCHAR ch-357
ENCODING 357
SWIDTH 1000 0
DWIDTH 16 0
BBX 16 16 0 -2
BITMAP
0200
0100
0080
0080
0140
0140
0220
0220
0410
0410
0808
1008
2007
4002
0000
0000
ENDCHAR
STARTCHAR ch-359
ENCODING 359
SWIDTH 1000 0
DWIDTH 16 0
BBX 16 16 0 -2
BITMAP
0100
0080
0082
7fff
2082
2082
2082
2142
2222
241a
280a
2002
200a
2004
0000
0000
ENDCHAR
STARTCHAR ch-360
ENCODING 360
SWIDTH 1000 0
DWIDTH 16 0
BBX 16 16 0 -2
BITMAP
0080
0140
0220
0410
0808
17f7
6082
0080
0080
07f0
0080
0080
0084
3ffe
0000
0000
ENDCHAR
STARTCHAR ch-361
ENCODING 361
SWIDTH 1000 0
DWIDTH 16 0
BBX 16 16 0 -2
BITMAP
0002
7fff
0080
0080
0080
7fff
4081
4891
4891
54a9
62c5
4081
4085
4002
0000
0000
ENDCHAR
STARTCHAR ch-363
ENCODING 363
SWIDTH 1000 0
DWIDTH 16 0
BBX 16 16 0 -2
BITMAP
0020
0230
0220
0220
0220
0220
0220
0410
0410
0410
0808
0804
1007
2002
0000
0000
ENDCHAR
STARTCHAR ch-364
ENCODING 364
SWIDTH 1000 0
DWIDTH 16 0
BBX 16 16 0 -2
BITMAP
0060
0240
0220
0420
0410
0808
1087
6082
0100
0200
0420
0810
1ff8
0808
0000
0000
ENDCHAR
STARTCHAR ch-365
ENCODING 365
SWIDTH 1000 0
DWIDTH 16 0
BBX 16 16 0 -2
BITMAP
0200
0100
0180
0082
7fff
0000
0000
0220
0610
0408
080c
0806
1006
2002
0000
0000
ENDCHAR
STARTCHAR ch-366
ENCODING 366
SWIDTH 1000 0
DWIDTH 16 0
BBX 16 16 0 -2
BITMAP
0220
0410
0410
0808
1008
2ff7
4402
0410
0ff8
0010
0010
0110
00a0
0040
0000
0000
ENDCHAR
STARTCHAR ch-369
ENCODING 369
SWIDTH 1000 0
DWIDTH 16 0
BBX 16 16 0 -2
BITMAP
0220
0220
0224
3ffe
0220
0220
0220
0222
7fff
0000
0220
0618
080c
1004
0000
0000
ENDCHAR
STARTCHAR ch-373
ENCODING 373
SWIDTH 1000 0
DWIDTH 16 0
BBX 16 16 0 -2
BITMAP
0010
0078
0780
0400
0400
07fe
0420
0420
0422
7fff
0220
0618
080c
1004
0000
0000
ENDCHAR
STARTCHAR ch-374
ENCODING 374
SWIDTH 1000 0
DWIDTH 16 0
BBX 16 16 0 -2
BITMAP
0410
0410
1ffc
0410
07f0
0410
07f0
0410
0412
7fff
0000
0410
0c0c
1004
0000
0000
ENDCHAR
STARTCHAR ch-375
ENCODING 375
SWIDTH 1000 0
DWIDTH 16 0
BBX 16 16 0 -2
BITMAP
0010
07f8
0410
07f0
0410
07f0
0410
07f0
0412
7fff
0220
0610
080c
1004
0000
0000
ENDCHAR
STARTCHAR ch-376
ENCODING 376
SWIDTH 1000 0
DWIDTH 16 0
BBX 16 16 0 -2
BITMAP
0240
0240
0248
1ffc
1248
1248
1ff8
1248
1248
7fff
0420
0c10
1008
2008
0000
0000
ENDCHAR
STARTCHAR ch-380
ENCODING 380
SWIDTH 1000 0
DWIDTH 16 0
BBX 16 16 0 -2
BITMAP
0808
0412
7fff
0220
1ffc
0224
7fff
0224
1ffc
0220
0a28
3226
0220
0220
0000
0000
ENDCHAR
STARTCHAR ch-384
ENCODING 384
SWIDTH 1000 0
DWIDTH 16 0
BBX 16 16 0 -2
BITMAP
0140
3f7e
7f7f
1ffc
1084
1ffc
1084
1ffc
0220
1ffc
0220
7fff
0808
3006
0000
0000
ENDCHAR
STARTCHAR ch-391
ENCODING 391
SWIDTH 1000 0
DWIDTH 16 0
BBX 16 16 0 -2
BITMAP
0100
0102
7fff
0200
0400
0ffc
1404
2404
0404
0404
0404
0404
0814
0008
0000
0000
ENDCHAR
STARTCHAR ch-393
ENCODING 393
SWIDTH 1000 0
DWIDTH 16 0
BBX 16 16 0 -2
BITMAP
0080
0084
1ffe
1084
1084
1ffc
1084
1084
7fff
1004
1004
1004
1014
1008
0000
0000
ENDCHAR
STARTCHAR ch-394
ENCODING 394
SWIDTH 1000 0
DWIDTH 16 0
BBX 16 16 0 -2
BITMAP
0004
0ffe
0924
0924
0924
0924
7fff
0924
0924
0924
0924
0924
1354
2088
0000
0000
ENDCHAR
STARTCHAR ch-397
ENCODING 397
SWIDTH 1000 0
DWIDTH 16 0
BBX 16 16 0 -2
BITMAP
3ffe
0080
0088
0ffc
0888
0888
0ff8
0888
0888
7fff
0808
0808
0828
0810
0000
0000
ENDCHAR
STARTCHAR ch-399
ENCODING 399
SWIDTH 1000 0
DWIDTH 16 0
BBX 16 16 0 -2
BITMAP
7fff
4241
4441
4841
507f
4001
4ff9
4809
4809
4809
4ff9
4809
4001
4006
0000
0000
ENDCHAR
STARTCHAR ch-401
ENCODING 401
SWIDTH 1000 0
DWIDTH 16 0
BBX 16 16 0 -2
BITMAP
0080
3ffe
2082
3ffe
2082
3ffe
0ff8
0808
0ff8
0808
0ff8
0808
0808
0808
0000
0000
ENDCHAR
STARTCHAR ch-402
ENCODING 402
SWIDTH 1000 0
DWIDTH 16 0
BBX 16 16 0 -2
BITMAP
3fff
2002
2ffa
2002
2ffa
2002
0ff8
0808
0ff8
0808
0ff8
0808
0ff8
0808
0000
0000
ENDCHAR
STARTCHAR ch-403
ENCODING 403
SWIDTH 1000 0
DWIDTH 16 0
BBX 16 16 0 -2
BITMAP
0410
3ffe
0410
3ffe
0410
7fff
0080
1ffc
1084
1ffc
1084
7fff
1004
1008
0000
0000
ENDCHAR
STARTCHAR ch-404
ENCODING 404
SWIDTH 1000 0
DWIDTH 16 0
BBX 16 16 0 -2
BITMAP
1ffc
1004
1ffc
1004
1ffc
0000
7cfe
4410
4410
45ff
7c10
4410
0050
0020
0000
0000
ENDCHAR
STARTCHAR ch-405
ENCODING 405
SWIDTH 1000 0
DWIDTH 16 0
BBX 16 16 0 -2
BITMAP
3ffe
2002
2ffa
2002
3ffe
0400
07f0
0820
1ffc
2884
4ffc
0140
0e41
303f
0000
0000
ENDCHAR
STARTCHAR ch-407
ENCODING 407
SWIDTH 1000 0
DWIDTH 16 0
BBX 16 16 0 -2
BITMAP
0002
3fff
2002
4004
0020
03f0
0220
0220
0220
0220
0420
0421
1821
601f
0000
0000
ENDCHAR
STARTCHAR ch-408
ENCODING 408
SWIDTH 1000 0
DWIDTH 16 0
BBX 16 16 0 -2
BITMAP
0080
0080
3ffe
2082
2084
2088
0080
00c0
0140
0240
0440
0841
1041
207f
0000
0000
ENDCHAR
STARTCHAR ch-414
ENCODING 414
SWIDTH 1000 0
DWIDTH 16 0
BBX 16 16 0 -2
BITMAP
7fff
4001
4081
1084
0c98
0080
3ffe
0080
02a0
0490
0888
1084
2082
0080
0000
0000
ENDCHAR
STARTCHAR ch-416
ENCODING 416
SWIDTH 1000 0
DWIDTH 16 0
BBX 16 16 0 -2
BITMAP
3fff
2001
4206
1f04
017f
3f84
0a24
0a14
0a04
0a14
1209
1201
21ff
4000
0000
0000
ENDCHAR
STARTCHAR ch-418
ENCODING 418
SWIDTH 1000 0
DWIDTH 16 0
BBX 16 16 0 -2
BITMAP
7fff
4001
4002
1ff8
0100
0300
0c8c
3550
0668
1ba4
02a3
1c60
0020
01c0
0000
0000
ENDCHAR
STARTCHAR ch-420
ENCODING 420
SWIDTH 1000 0
DWIDTH 16 0
BBX 16 16 0 -2
BITMAP
3fff
2201
43f2
0420
0840
1ff8
2888
0888
0ff8
0908
0250
0449
0841
303f
0000
0000
ENDCHAR
STARTCHAR ch-421
ENCODING 421
SWIDTH 1000 0
DWIDTH 16 0
BBX 16 16 0 -2
BITMAP
3fff
2001
4002
0ff8
0808
0ff8
0808
0ff8
0908
0082
7fff
0410
080c
1004
0000
0000
ENDCHAR
STARTCHAR ch-426
ENCODING 426
SWIDTH 1000 0
DWIDTH 16 0
BBX 16 16 0 -2
BITMAP
7fff
4411
7fff
0ff8
0808
0ff8
0808
0ff8
0100
7fff
0888
1ffc
288a
0080
0000
0000
ENDCHAR
STARTCHAR ch-428
ENCODING 428
SWIDTH 1000 0
DWIDTH 16 0
BBX 16 16 0 -2
BITMAP
0200
03f8
0410
0a20
1140
0080
0160
0618
1807
6302
00c0
0300
00c0
0020
0000
0000
ENDCHAR
STARTCHAR ch-432
ENCODING 432
SWIDTH 1000 0
DWIDTH 16 0
BBX 16 16 0 -2
BITMAP
2040
1840
0842
0046
07c8
08f0
0960
1150
7248
1244
1447
1842
1140
1080
0000
0000
ENDCHAR
STARTCHAR ch-433
ENCODING 433
SWIDTH 1000 0
DWIDTH 16 0
BBX 16 16 0 -2
BITMAP
0004
47fe
3100
1100
0108
01fc
0508
0908
7108
13f8
1008
1010
1022
17ff
0000
0000
ENDCHAR
STARTCHAR ch-438
ENCODING 438
SWIDTH 1000 0
DWIDTH 16 0
BBX 16 16 0 -2
BITMAP
2020
1840
0840
0088
0104
07fe
0802
1000
73fc
1204
1204
1204
13fc
1204
0000
0000
ENDCHAR
STARTCHAR ch-439
ENCODING 439
SWIDTH 1000 0
DWIDTH 16 0
BBX 16 16 0 -2
BITMAP
2040
18a0
0910
0208
05f4
0803
03f8
1008
6010
2020
2140
2080
2060
0020
0000
0000
ENDCHAR
STARTCHAR ch-441
ENCODING 441
SWIDTH 1000 0
DWIDTH 16 0
BBX 16 16 0 -2
BITMAP
4024
3022
13ff
0040
0042
0482
0902
7244
1428
1010
1028
1044
1082
1101
0000
0000
ENDCHAR
STARTCHAR ch-444
ENCODING 444
SWIDTH 1000 0
DWIDTH 16 0
BBX 16 16 0 -2
BITMAP
0020
4120
3124
11fe
0120
0220
0822
13ff
7090
1090
1090
1111
1211
140f
0000
0000
ENDCHAR
STARTCHAR ch-445
ENCODING 445
SWIDTH 1000 0
DWIDTH 16 0
BBX 16 16 0 -2
BITMAP
0022
27f2
1102
090a
09ea
012a
0a2a
132a
14ca
704a
108a
1102
140a
1004
0000
0000
ENDCHAR
STARTCHAR ch-446
ENCODING 446
SWIDTH 1000 0
DWIDTH 16 0
BBX 16 16 0 -2
BITMAP
0020
4050
3088
1104
0202
04f9
0000
0800
71fc
1104
1104
1104
11fc
1104
0000
0000
ENDCHAR
STARTCHAR ch-452
ENCODING 452
SWIDTH 1000 0
DWIDTH 16 0
BBX 16 16 0 -2
BITMAP
0020
47ff
2020
33fe
0022
07ff
0022
0bfe
1088
77ff
1088
1070
1088
1707
0000
0000
ENDCHAR
STARTCHAR ch-453
ENCODING 453
SWIDTH 1000 0
DWIDTH 16 0
BBX 16 16 0 -2
BITMAP
07ff
4421
2421
35fd
1421
0421
05fd
0d05
1505
65fd
2505
2401
27ff
2401
0000
0000
ENDCHAR
STARTCHAR ch-454
ENCODING 454
SWIDTH 1000 0
DWIDTH 16 0
BBX 16 16 0 -2
BITMAP
4090
2092
19ff
0910
0310
01fe
0910
1110
71fe
1110
1112
11ff
1100
0100
0000
0000
ENDCHAR
STARTCHAR ch-456
ENCODING 456
SWIDTH 1000 0
DWIDTH 16 0
BBX 16 16 0 -2
BITMAP
03fe
4124
3222
1421
03fe
0822
17ff
7022
13fe
1020
1020
1020
00a0
0040
0000
0000
ENDCHAR
STARTCHAR ch-458
ENCODING 458
SWIDTH 1000 0
DWIDTH 16 0
BBX 16 16 0 -2
BITMAP
0020
43fe
3020
11fc
1020
07ff
0000
09fe
1102
71fe
1102
11fe
1102
1104
0000
0000
ENDCHAR
STARTCHAR ch-459
ENCODING 459
SWIDTH 1000 0
DWIDTH 16 0
BBX 16 16 0 -2
BITMAP
0002
43ff
2222
1a22
02fa
0622
0bfe
1202
72fa
128a
12fa
1202
040a
0804
0000
0000
ENDCHAR
STARTCHAR ch-460
ENCODING 460
SWIDTH 1000 0
DWIDTH 16 0
BBX 16 16 0 -2
BITMAP
0020
0024
43fe
3020
1020
07ff
0104
0a47
14f8
6188
2250
2020
20d8
0707
0000
0000
ENDCHAR
STARTCHAR ch-461
ENCODING 461
SWIDTH 1000 0
DWIDTH 16 0
BBX 16 16 0 -2
BITMAP
0020
47ff
2020
13fe
0222
03fe
0222
0bfe
1222
60a8
2124
2623
0020
0020
0000
0000
ENDCHAR
STARTCHAR ch-462
ENCODING 462
SWIDTH 1000 0
DWIDTH 16 0
BBX 16 16 0 -2
BITMAP
0070
4088
2104
3202
1401
01fc
0420
0820
13fe
7020
1222
1124
10a8
17ff
0000
0000
ENDCHAR
STARTCHAR ch-464
ENCODING 464
SWIDTH 1000 0
DWIDTH 16 0
BBX 16 16 0 -2
BITMAP
0002
01ff
4028
3028
19ff
0129
0129
05ff
0810
7010
10fe
1010
1010
11ff
0000
0000
ENDCHAR
STARTCHAR ch-468
ENCODING 468
SWIDTH 1000 0
DWIDTH 16 0
BBX 16 16 0 -2
BITMAP
0020
4050
3088
1124
03fe
0505
01fc
1104
61fc
2200
25fe
2902
2102
21fe
0000
0000
ENDCHAR
STARTCHAR ch-471
ENCODING 471
SWIDTH 1000 0
DWIDTH 16 0
BBX 16 16 0 -2
BITMAP
0010
4111
6111
21ff
1050
0888
01ff
0288
08fe
1088
60fe
2088
2088
20ff
0000
0000
ENDCHAR
STARTCHAR ch-472
ENCODING 472
SWIDTH 1000 0
DWIDTH 16 0
BBX 16 16 0 -2
BITMAP
0440
4441
2fde
2450
2450
07df
0452
17d2
1452
6452
2ff2
22a2
2442
2822
0000
0000
ENDCHAR
STARTCHAR ch-476
ENCODING 476
SWIDTH 1000 0
DWIDTH 16 0
BBX 16 16 0 -2
BITMAP
0020
47ff
3000
13fe
028a
02fa
0a02
13fe
61fc
2020
2fff
2124
2222
2421
0000
0000
ENDCHAR
STARTCHAR ch-477
ENCODING 477
SWIDTH 1000 0
DWIDTH 16 0
BBX 16 16 0 -2
BITMAP
0400
44be
3702
1414
03c8
143f
17c1
190a
6128
2fee
2128
22a8
245f
0882
0000
0000
ENDCHAR
STARTCHAR ch-478
ENCODING 478
SWIDTH 1000 0
DWIDTH 16 0
BBX 16 16 0 -2
BITMAP
45ef
2549
3549
15e9
0529
052b
0de8
1548
6549
25ef
2400
2552
2929
3229
0000
0000
ENDCHAR
STARTCHAR ch-480
ENCODING 480
SWIDTH 1000 0
DWIDTH 16 0
BBX 16 16 0 -2
BITMAP
0410
07f8
0410
0410
0410
0410
0410
0410
0410
0410
0411
0811
100f
6000
0000
0000
ENDCHAR
STARTCHAR ch-481
ENCODING 481
SWIDTH 1000 0
DWIDTH 16 0
BBX 16 16 0 -2
BITMAP
0010
07f8
0410
0410
0510
0490
04d0
0450
0410
0411
0811
0811
100f
2000
0000
0000
ENDCHAR
STARTCHAR ch-496
ENCODING 496
SWIDTH 1000 0
DWIDTH 16 0
BBX 16 16 0 -2
BITMAP
3ffc
2104
2204
27f4
2c14
27f4
2414
27f4
2004
27f4
2084
27f5
2085
4ffb
0000
0000
ENDCHAR
STARTCHAR ch-497
ENCODING 497
SWIDTH 1000 0
DWIDTH 16 0
BBX 16 16 0 -2
BITMAP
083c
4924
4924
7f24
0024
7f24
0024
7f24
4124
4124
7f25
4125
2245
7f87
0000
0000
ENDCHAR
STARTCHAR ch-499
ENCODING 499
SWIDTH 1000 0
DWIDTH 16 0
BBX 16 16 0 -2
BITMAP
1f48
0950
0624
05d8
0808
17f7
6412
07f0
0220
3ffe
03e0
0222
0422
181e
0000
0000
ENDCHAR
STARTCHAR ch-501
ENCODING 501
SWIDTH 1000 0
DWIDTH 16 0
BBX 16 16 0 -2
BITMAP
0000
2002
2002
2002
2002
2002
2002
2002
2002
2002
2002
3ffe
2002
0000
0000
0000
ENDCHAR
STARTCHAR ch-502
ENCODING 502
SWIDTH 1000 0
DWIDTH 16 0
BBX 16 16 0 -2
BITMAP
4001
4809
4411
4221
4141
4081
4141
4221
4411
480d
5005
4001
7fff
4001
0000
0000
ENDCHAR
STARTCHAR ch-504
ENCODING 504
SWIDTH 1000 0
DWIDTH 16 0
BBX 16 16 0 -2
BITMAP
0010
07f8
0410
0410
0410
0412
7c1f
2002
2002
2002
2002
2002
3ffe
2002
0000
0000
ENDCHAR
STARTCHAR ch-505
ENCODING 505
SWIDTH 1000 0
DWIDTH 16 0
BBX 16 16 0 -2
BITMAP
0000
0002
3e3f
2222
2222
2222
2222
2222
23e2
2002
2002
2002
3ffe
2002
0000
0000
ENDCHAR
STARTCHAR ch-506
ENCODING 506
SWIDTH 1000 0
DWIDTH 16 0
BBX 16 16 0 -2
BITMAP
0080
0080
1084
1084
1084
1ffc
1084
0080
2082
2082
2082
2082
3ffe
2002
0000
0000
ENDCHAR
STARTCHAR ch-509
ENCODING 509
SWIDTH 1000 0
DWIDTH 16 0
BBX 16 16 0 -2
BITMAP
0ff8
0010
0020
40c1
4889
4499
42a1
4081
4499
588d
4281
4101
7fff
4001
0000
0000
ENDCHAR
ENDFONT
